# xmcd
#
# Track frame offsets: 
#        150
#        21337
#        40237
#        59562
#        76900
#        91375
#        112200
#        128400
#        148025
#        166312
#        182875
#        204100
#        230225
#        250575
#        270837
#        286637
#        308137
#        329025
#
# Disc length: 4659 seconds
#
# Revision: 7
# Processed by: cddbd v1.5.2PL0 Copyright (c) Steve Scherf et al.
# Submitted via: ExactAudioCopy v1.0b3
#
DISCID=fb123112
DTITLE=Various Artist - Best Of Forever Love 18
DYEAR=1999
DGENRE=WPop
TTITLE0=My Heart Will Go On
TTITLE1=That's Why (You Go Away)
TTITLE2=Candle In Wind'97
TTITLE3=Eternal Flame
TTITLE4=Lemon Tree
TTITLE5=Dreaming Of You
TTITLE6=Promise Me
TTITLE7=I Sewar
TTITLE8=Can You Feel The Love Tonight
TTITLE9=Save The Best For Last
TTITLE10=Because I Love You
TTITLE11=You Are Not Alone
TTITLE12=Right Here Waiting
TTITLE13=I Will Always Love You
TTITLE14=Without You
TTITLE15=Greatest Love Of All
TTITLE16=Power Of Love
TTITLE17=Forever Love
EXTD=ID3G: 24
EXTT0=
EXTT1=
EXTT2=
EXTT3=
EXTT4=
EXTT5=
EXTT6=
EXTT7=
EXTT8=
EXTT9=
EXTT10=
EXTT11=
EXTT12=
EXTT13=
EXTT14=
EXTT15=
EXTT16=
EXTT17=
PLAYORDER=
